<svg width="370" height="256" viewBox="0 0 370 256" fill="none" xmlns="http://www.w3.org/2000/svg">
<g clip-path="url(#clip0_2257_94)">
<path d="M370 0H0V256H370V0Z" fill="#1E1E1E"/>
<path d="M194.778 95.3295C196.116 94.5537 197.822 95.0262 198.586 96.3842L212.667 121.392H222.209C223.751 121.392 225 122.66 225 124.224C225 125.788 223.751 127.056 222.209 127.056H219.222L213.394 152.805C212.905 155.159 211.626 157.265 209.775 158.768C207.92 160.274 205.608 161.075 203.234 161.04L166.766 161.044C164.392 161.079 162.08 160.274 160.225 158.768C158.356 157.25 157.07 155.116 156.592 152.735L151.119 127.056H147.791C146.249 127.056 145 125.788 145 124.224C145 122.66 146.249 121.392 147.791 121.392H157.333L171.414 96.3842C172.178 95.0262 173.884 94.5537 175.222 95.3295C176.56 96.1055 177.025 97.8363 176.261 99.1944L163.765 121.392H206.235L193.739 99.1944C192.975 97.8363 193.44 96.1055 194.778 95.3295ZM162.053 151.57L162.06 151.603C162.278 152.685 162.861 153.657 163.71 154.347C164.56 155.037 165.623 155.401 166.711 155.379H174.44L173.201 144.05H160.451L162.053 151.57ZM195.56 155.379H203.289C204.377 155.401 205.44 155.037 206.29 154.347C207.139 153.657 207.722 152.685 207.94 151.603C207.944 151.581 207.949 151.559 207.954 151.536L209.648 144.05H196.799L195.56 155.379ZM180.055 155.379H189.945L191.185 144.05H178.815L180.055 155.379ZM197.42 138.385H210.93L213.496 127.056H198.659L197.42 138.385ZM178.194 138.385H191.806L193.045 127.056H176.955L178.194 138.385ZM159.244 138.385H172.58L171.341 127.056H156.831L159.244 138.385Z" fill="white"/>
<path d="M148.132 91.4517C150.084 89.5161 153.249 89.5161 155.202 91.4517L221.868 157.539C223.821 159.475 223.821 162.613 221.868 164.548C219.916 166.484 216.751 166.484 214.798 164.548L148.132 98.4606C146.179 96.525 146.179 93.3874 148.132 91.4517Z" fill="#FF0000"/>
</g>
<defs>
<clipPath id="clip0_2257_94">
<rect width="370" height="256" fill="white"/>
</clipPath>
</defs>
</svg>
