<svg width="370" height="256" viewBox="0 0 370 256" fill="none" xmlns="http://www.w3.org/2000/svg">
<rect width="370" height="256" fill="white"/>
<path d="M221.242 130.53C222.47 130.468 223.5 131.448 223.5 132.677V140.906C223.5 141.508 223.028 142.004 222.427 142.035C210.281 143.266 200.637 152.943 199.479 165.09C199.455 165.599 199.034 166 198.525 166H189.874C188.773 166 187.896 165.08 187.948 163.981C189.628 146.357 203.621 132.317 221.242 130.53Z" fill="#D9D9D9"/>
<path d="M147.521 132.67C147.459 131.444 148.437 130.416 149.664 130.416H157.919C158.52 130.416 159.016 130.887 159.046 131.488C160.28 143.611 169.974 153.238 182.143 154.394C182.653 154.418 183.055 154.839 183.055 155.35V163.974C183.055 165.077 182.133 165.956 181.032 165.904C163.377 164.226 149.311 150.259 147.521 132.67Z" fill="#D2CD05"/>
<path d="M180.797 90.0223C182.024 89.9604 183.054 90.9395 183.054 92.1692V100.398C183.054 101 182.582 101.497 181.981 101.527C169.836 102.758 160.191 112.435 159.033 124.582C159.009 125.091 158.589 125.492 158.079 125.492H149.428C148.328 125.492 147.45 124.572 147.502 123.473C149.183 105.849 163.175 91.8089 180.797 90.0223Z" fill="#1B7AA6"/>
<path d="M223.387 123.236C223.449 124.462 222.472 125.49 221.244 125.49H212.989C212.388 125.49 211.893 125.019 211.862 124.419C210.628 112.295 200.934 102.668 188.765 101.512C188.255 101.488 187.854 101.067 187.854 100.556V91.932C187.854 90.8292 188.775 89.9502 189.877 90.0022C207.532 91.6795 221.597 105.647 223.387 123.236Z" fill="#C01718"/>
</svg>
