<svg width="370" height="256" viewBox="0 0 370 256" fill="none" xmlns="http://www.w3.org/2000/svg">
<rect width="370" height="256" fill="white"/>
<path fill-rule="evenodd" clip-rule="evenodd" d="M218.473 109.584H202.677V90L197.913 92.2552C195.239 93.591 193.066 95.5118 191.519 98.0176C189.932 100.481 189.138 103.238 189.138 106.202V166L193.901 163.745C196.618 162.409 198.749 160.488 200.337 157.982C201.925 155.519 202.677 152.763 202.677 149.798V123.115H216.216C216.76 123.115 217.512 123.198 218.515 123.281C219.476 123.407 220.521 123.699 221.649 124.158C222.778 124.659 223.864 125.369 224.951 126.371C225.619 126.998 226.121 127.624 226.58 128.251C227.834 130.213 228.461 132.343 228.461 134.598V153.097H242V133.095C242 128.752 240.956 124.827 238.825 121.277C236.693 117.728 233.894 114.888 230.3 112.758C226.747 110.67 222.819 109.584 218.473 109.584ZM173.675 92.2552L168.912 90V109.584H151.528C147.181 109.584 143.212 110.629 139.659 112.758C136.107 114.888 133.266 117.728 131.176 121.277C129.045 124.827 128 128.752 128 133.095V153.097H182.451V153.014V106.202C182.451 103.196 181.658 100.481 180.111 97.9757C178.523 95.5118 176.392 93.591 173.675 92.2552ZM156.918 123.115H168.912V136.811C168.912 137.73 168.995 138.649 169.162 139.567H141.54V134.598C141.54 132.343 142.167 130.213 143.42 128.251C143.838 127.624 144.382 126.998 145.008 126.371C146.095 125.369 147.223 124.618 148.352 124.158C149.48 123.699 150.525 123.407 151.486 123.281C152.447 123.198 153.241 123.115 153.784 123.115H156.918Z" fill="black"/>
</svg>
