<svg width="370" height="256" viewBox="0 0 370 256" fill="none" xmlns="http://www.w3.org/2000/svg">
<rect width="370" height="256" fill="white"/>
<path d="M210.333 140.667C210.333 154.658 198.991 166 185 166C171.009 166 159.667 154.658 159.667 140.667C185 140.667 185 140.667 185 140.667C198.991 140.667 185 140.667 210.333 140.667Z" fill="#0096FF"/>
<path d="M159.667 140.667C159.667 154.658 148.325 166 134.333 166C120.342 166 109 154.658 109 140.667C134.333 140.667 134.333 140.667 134.333 140.667C134.333 140.667 185 140.667 159.667 140.667Z" fill="#0068F4"/>
<path d="M159.667 90H210.333V140.667H185H159.667V90Z" fill="#19A5FC"/>
<path d="M210.333 90C261 90 261 90 261 140.667H210.333V90Z" fill="#0076F9"/>
<path d="M109 140.667C109 90 109 90 159.667 90V140.667H109Z" fill="#0076F9"/>
<path d="M261 140.667C261 154.658 249.658 166 235.667 166C221.675 166 210.333 154.658 210.333 140.667C235.667 140.667 235.667 140.667 235.667 140.667C235.667 140.667 235.667 140.667 261 140.667Z" fill="#0068F4"/>
</svg>
