<svg width="370" height="256" viewBox="0 0 370 256" fill="none" xmlns="http://www.w3.org/2000/svg">
<rect width="370" height="256" fill="white"/>
<path d="M209.015 165.835C208.125 165.835 207.372 165.521 206.755 164.893C206.139 164.265 205.831 163.497 205.831 162.59C205.831 161.683 206.139 160.916 206.755 160.288C207.372 159.66 208.125 159.346 209.015 159.346C209.871 159.346 210.59 159.66 211.172 160.288C211.788 160.916 212.097 161.683 212.097 162.59C212.097 163.497 211.788 164.265 211.172 164.893C210.59 165.521 209.871 165.835 209.015 165.835Z" fill="black"/>
<path d="M230.581 165.835C229.691 165.835 228.938 165.521 228.321 164.893C227.705 164.265 227.397 163.497 227.397 162.59C227.397 161.683 227.705 160.916 228.321 160.288C228.938 159.66 229.691 159.346 230.581 159.346C231.437 159.346 232.156 159.66 232.738 160.288C233.354 160.916 233.663 161.683 233.663 162.59C233.663 163.497 233.354 164.265 232.738 164.893C232.156 165.521 231.437 165.835 230.581 165.835Z" fill="black"/>
<path d="M219.798 165.835C218.908 165.835 218.155 165.521 217.538 164.893C216.922 164.265 216.614 163.497 216.614 162.59C216.614 161.683 216.922 160.916 217.538 160.288C218.155 159.66 218.908 159.346 219.798 159.346C220.654 159.346 221.373 159.66 221.955 160.288C222.571 160.916 222.88 161.683 222.88 162.59C222.88 163.497 222.571 164.265 221.955 164.893C221.373 165.521 220.654 165.835 219.798 165.835Z" fill="black"/>
<path d="M154.059 100.589C154.059 103.6 153.027 106.109 150.962 108.116C148.931 110.088 145.816 111.075 141.617 111.075H134.698V126.18H130V90H141.617C145.678 90 148.759 90.9863 150.858 92.9588C152.992 94.9313 154.059 97.4748 154.059 100.589ZM141.617 107.182C144.233 107.182 146.16 106.611 147.399 105.469C148.638 104.327 149.258 102.7 149.258 100.589C149.258 96.1252 146.711 93.8931 141.617 93.8931H134.698V107.182H141.617Z" fill="black"/>
<path d="M158.143 111.853C158.143 108.946 158.729 106.403 159.899 104.223C161.069 102.008 162.67 100.295 164.7 99.0839C166.766 97.8727 169.054 97.2671 171.567 97.2671C174.045 97.2671 176.197 97.8035 178.021 98.8763C179.845 99.9491 181.205 101.299 182.1 102.925V97.7343H186.849V126.18H182.1V120.885C181.17 122.546 179.776 123.931 177.918 125.038C176.093 126.111 173.959 126.647 171.515 126.647C169.003 126.647 166.731 126.024 164.7 124.778C162.67 123.533 161.069 121.785 159.899 119.536C158.729 117.286 158.143 114.726 158.143 111.853ZM182.1 111.905C182.1 109.76 181.669 107.891 180.809 106.299C179.948 104.707 178.778 103.496 177.298 102.666C175.852 101.8 174.252 101.368 172.496 101.368C170.741 101.368 169.14 101.783 167.695 102.614C166.249 103.444 165.096 104.655 164.236 106.247C163.375 107.839 162.945 109.708 162.945 111.853C162.945 114.033 163.375 115.937 164.236 117.563C165.096 119.155 166.249 120.384 167.695 121.249C169.14 122.079 170.741 122.494 172.496 122.494C174.252 122.494 175.852 122.079 177.298 121.249C178.778 120.384 179.948 119.155 180.809 117.563C181.669 115.937 182.1 114.051 182.1 111.905Z" fill="black"/>
<path d="M199.487 102.354C200.313 100.728 201.484 99.4646 202.998 98.5648C204.547 97.6651 206.423 97.2152 208.626 97.2152V102.095H207.387C202.12 102.095 199.487 104.967 199.487 110.711V126.18H194.789V97.7343H199.487V102.354Z" fill="black"/>
<path d="M212.294 111.853C212.294 108.946 212.879 106.403 214.049 104.223C215.22 102.008 216.82 100.295 218.851 99.0839C220.916 97.8727 223.205 97.2671 225.718 97.2671C228.196 97.2671 230.347 97.8035 232.171 98.8763C233.996 99.9491 235.355 101.299 236.25 102.925V97.7343H241V126.18H236.25V120.885C235.321 122.546 233.927 123.931 232.068 125.038C230.244 126.111 228.11 126.647 225.666 126.647C223.153 126.647 220.882 126.024 218.851 124.778C216.82 123.533 215.22 121.785 214.049 119.536C212.879 117.286 212.294 114.726 212.294 111.853ZM236.25 111.905C236.25 109.76 235.82 107.891 234.959 106.299C234.099 104.707 232.929 103.496 231.449 102.666C230.003 101.8 228.402 101.368 226.647 101.368C224.892 101.368 223.291 101.783 221.845 102.614C220.4 103.444 219.247 104.655 218.386 106.247C217.526 107.839 217.095 109.708 217.095 111.853C217.095 114.033 217.526 115.937 218.386 117.563C219.247 119.155 220.4 120.384 221.845 121.249C223.291 122.079 224.892 122.494 226.647 122.494C228.402 122.494 230.003 122.079 231.449 121.249C232.929 120.384 234.099 119.155 234.959 117.563C235.82 115.937 236.25 114.051 236.25 111.905Z" fill="black"/>
<path d="M154.059 140.409C154.059 143.42 153.027 145.929 150.962 147.936C148.931 149.908 145.816 150.895 141.617 150.895H134.698V166H130V129.82H141.617C145.678 129.82 148.759 130.806 150.858 132.779C152.992 134.751 154.059 137.295 154.059 140.409ZM141.617 147.002C144.233 147.002 146.16 146.431 147.399 145.289C148.638 144.147 149.258 142.52 149.258 140.409C149.258 135.945 146.711 133.713 141.617 133.713H134.698V147.002H141.617Z" fill="black"/>
<path d="M162.325 132.935C161.43 132.935 160.673 132.623 160.054 132C159.434 131.377 159.124 130.616 159.124 129.716C159.124 128.816 159.434 128.055 160.054 127.432C160.673 126.809 161.43 126.498 162.325 126.498C163.186 126.498 163.909 126.809 164.494 127.432C165.113 128.055 165.423 128.816 165.423 129.716C165.423 130.616 165.113 131.377 164.494 132C163.909 132.623 163.186 132.935 162.325 132.935ZM164.597 137.554V166H159.899V137.554H164.597Z" fill="black"/>
<path d="M186.39 137.035C189.832 137.035 192.62 138.091 194.754 140.202C196.888 142.278 197.955 145.289 197.955 149.234V166H193.308V149.908C193.308 147.071 192.602 144.908 191.191 143.42C189.78 141.897 187.852 141.136 185.409 141.136C182.93 141.136 180.951 141.915 179.471 143.472C178.026 145.029 177.303 147.296 177.303 150.272V166H172.604V137.554H177.303V141.603C178.232 140.15 179.488 139.025 181.072 138.229C182.689 137.433 184.462 137.035 186.39 137.035Z" fill="black"/>
</svg>
