<svg width="370" height="256" viewBox="0 0 370 256" fill="none" xmlns="http://www.w3.org/2000/svg">
<rect width="370" height="256" fill="white"/>
<path d="M202.094 149.761L201.242 150.969L203.984 165.016L225.096 165.026L219.084 153.656L216.61 148.937L214.38 150.741L210.091 142.062L205.248 152.869L202.094 149.761Z" fill="#F2F1F1"/>
<path d="M161.533 141.379L156.237 152.306L153.471 149.787L143.322 165.461L144.013 165.998H152.458L166.039 163.316L163.746 155.545L166.217 154.006L162.905 145.381L161.533 141.379Z" fill="#F2F1F1"/>
<path d="M169.241 141.773L164.323 149.077L166.28 151.488L169.229 146.142L169.241 141.773Z" fill="#FD4F00"/>
<path d="M196.431 144.363L199.734 149.958L198.391 158.362L194.806 157.495L190.223 142.944L190.856 140.256L193.338 139.514L196.431 144.363Z" fill="#FD4F00"/>
<path d="M146.932 165.93H223.337V160.703H146.932V165.93Z" fill="#F2F1F1"/>
<path d="M182.662 90C168.334 90 156.761 102.04 156.761 116.948C156.761 116.948 155.107 137.342 182.662 165.933C205.732 141.931 208.331 123.747 208.564 118.507C208.564 118.014 208.644 117.524 208.644 116.952C208.564 102.041 196.991 90.0005 182.662 90.0005L182.662 90ZM182.662 125.386C176.601 125.386 171.64 120.224 171.64 113.918C171.64 107.611 176.601 102.45 182.662 102.45C188.724 102.45 193.685 107.611 193.685 113.918C193.685 120.228 188.724 125.386 182.662 125.386Z" fill="#FD4F00"/>
<path d="M193.39 137.693L190.856 140.254L183.451 126.35L174.937 143.918L169.726 139.171L153.652 165.933H210.091L193.39 137.693ZM164.715 164.576H161.945L165.35 159.908L164.715 164.576ZM159.974 164.56L156.389 164.611L169.046 142.888L159.974 164.56ZM182.269 153.875V161.748L176.49 152.319L173.956 154.332V149.296L170.157 141.423L177.282 148.014L178.548 147.466L185.277 154.332L182.269 153.875ZM183.113 141.423L181.055 143.591L180.764 142.309L176.965 146.398L175.566 144.872L183.458 129.065L183.775 138.006L185.649 138.281L189.476 145.727L183.113 141.423ZM191.083 142.597L193.09 140.308L198.765 149.859L192.853 143.023L196.759 156.694L191.083 142.597Z" fill="#F2F1F1"/>
<path d="M167.715 148.434L166.139 150.027L161.533 141.379L156.238 152.306L152.997 149.354L143 165.998H178.103L167.715 148.434ZM149.881 165.154H148.158L150.275 162.251L149.881 165.154ZM146.932 165.144L144.702 165.176L152.575 151.665L146.932 165.144ZM160.798 158.499V163.396L157.204 157.531L155.628 158.783V155.651L153.265 150.754L157.697 154.854L158.484 154.513L162.67 158.783L160.798 158.499ZM161.323 150.754L160.043 152.102L159.862 151.305L157.5 153.848L156.63 152.899L161.538 143.068L161.736 148.629L162.901 148.8L165.281 153.431L161.323 150.754ZM166.281 151.484L167.529 150.061L171.059 156.001L167.381 151.75L169.811 160.252L166.281 151.484Z" fill="#FD4F00"/>
<path d="M216.302 148.415L214.731 150.003L210.138 141.379L204.858 152.276L201.625 149.332L191.656 165.929H226.661L216.302 148.415ZM198.518 165.088H196.8L198.911 162.193L198.518 165.088ZM195.577 165.078L193.353 165.11L201.204 151.636L195.577 165.078ZM209.405 158.451V163.334L205.821 157.486L204.249 158.734V155.611L201.893 150.728L206.312 154.816L207.097 154.476L211.271 158.734L209.405 158.451ZM209.929 150.728L208.652 152.072L208.472 151.278L206.115 153.813L205.248 152.867L210.143 143.063L210.34 148.609L211.502 148.779L213.875 153.398L209.929 150.728ZM214.872 151.456L216.117 150.037L219.637 155.96L215.97 151.721L218.392 160.199L214.872 151.456Z" fill="#FD4F00"/>
</svg>
